<svg id="Layer_1" data-name="Layer 1" xmlns="http://www.w3.org/2000/svg" viewBox="0 0 293.57 136.02"><defs><style>.cls-1{fill:#fff;}</style></defs><path class="cls-1" d="M54.08,35.36c.22-.5.4-.92.59-1.34A18.11,18.11,0,0,1,68.94,23a30.17,30.17,0,0,1,12.75.78,6.74,6.74,0,0,1,.86.3,2.59,2.59,0,0,1-1.45,4.95c-.81-.15-1.61-.4-2.41-.57A22.43,22.43,0,0,0,68,28.58c-4.5,1.25-7.32,4.28-9,8.53,0,0,0,.11,0,.23l.84.48A38.43,38.43,0,0,1,67.61,43a7,7,0,0,0,4.69,1.75c1.72.06,3.43.11,5.15.19a15.55,15.55,0,0,1,4.32.8,11.86,11.86,0,0,1,6.09,4.82,24.71,24.71,0,0,1,3.58,9.28,27.72,27.72,0,0,1-.82,12.44A68.78,68.78,0,0,1,86,84c-1.64,3.39-3.34,6.75-4.94,10.16a42.8,42.8,0,0,0-2,5,16.83,16.83,0,0,1-7.49,9.21,33.1,33.1,0,0,1-10.68,4,49.52,49.52,0,0,1-12.8.89,15.31,15.31,0,0,1-6.47-1.92,19.75,19.75,0,0,1-4.16-2.84,3.44,3.44,0,0,0-2.3-.92,27.38,27.38,0,0,1-12.73-3.79A25.84,25.84,0,0,1,11.31,90.3,37.12,37.12,0,0,1,9,80.12a74.37,74.37,0,0,1,.86-18.49A98.46,98.46,0,0,1,13.64,46,43.27,43.27,0,0,1,19.21,34.7a21.42,21.42,0,0,1,5.06-5.17A15.92,15.92,0,0,1,38.1,27.21a28.4,28.4,0,0,1,11.2,6.1,6.2,6.2,0,0,0,3.53,1.74A9.85,9.85,0,0,1,54.08,35.36Zm-10.68,71a12.47,12.47,0,0,0,6.32,1.8,44.08,44.08,0,0,0,11-1.15,25.63,25.63,0,0,0,8.39-3.39,12,12,0,0,0,5-6.29,59.14,59.14,0,0,1,2.36-5.77C78.25,87.76,80.15,84,82,80.24a53.51,53.51,0,0,0,3.7-9.68,21.63,21.63,0,0,0,.25-11.43,19.13,19.13,0,0,0-2.29-5.48,6.93,6.93,0,0,0-4.71-3.24c-1.17-.19-2.37-.24-3.56-.33-1.86-.13-3.74-.17-5.59-.38a8.75,8.75,0,0,1-4.94-2.21,36.29,36.29,0,0,0-7.66-5.2A22.33,22.33,0,0,0,49,39.69a11.23,11.23,0,0,0-7.82,2.06,17.77,17.77,0,0,0-5.44,6.83A46.16,46.16,0,0,0,32,60.09a141.59,141.59,0,0,0-2.64,20.1,57.3,57.3,0,0,0,.43,12.28,17.88,17.88,0,0,0,1.87,5.92A6.62,6.62,0,0,0,39.4,102a21.11,21.11,0,0,0,9.87-5.22,7.48,7.48,0,0,0,.76-.91,2.54,2.54,0,0,1,1.33-.94,2.6,2.6,0,0,1,2.81.86,2.47,2.47,0,0,1,.18,2.93,9.75,9.75,0,0,1-1.49,1.85,25,25,0,0,1-7.22,4.84C45,105.71,44.25,106,43.4,106.36Zm-16.78-6.23c-.12-.37-.17-.54-.24-.7a28.8,28.8,0,0,1-1.88-7.18,68,68,0,0,1-.11-16.13c.4-4,1-8,1.58-12a72.55,72.55,0,0,1,2.92-12.59,34.2,34.2,0,0,1,4.93-9.8,17.76,17.76,0,0,1,8.52-6.44,4.62,4.62,0,0,0,.51-.24l-.36-.21a21.12,21.12,0,0,0-5.76-2.57,11,11,0,0,0-11,2.89,22.47,22.47,0,0,0-4,5.36,47.25,47.25,0,0,0-3.7,9,93.6,93.6,0,0,0-4,22.09,44.91,44.91,0,0,0,.86,12.51,25.45,25.45,0,0,0,4.55,10.24A20,20,0,0,0,26.62,100.13Z"/><path class="cls-1" d="M208.41,75.52a13.73,13.73,0,0,1,12.14-3.38,13.37,13.37,0,0,1,8,4.86,13.75,13.75,0,0,1-.15,17.59,13.47,13.47,0,0,1-9.63,4.91,13.69,13.69,0,0,1-10.4-3.66v14.61a8.44,8.44,0,0,1,0,1,2.19,2.19,0,0,1-4.27.32,4,4,0,0,1-.12-1.09q0-18.09,0-36.19a3.74,3.74,0,0,1,.11-1,2.19,2.19,0,0,1,4.28.31C208.38,74.31,208.37,74.83,208.41,75.52Zm9.34.79a9.4,9.4,0,1,0,9.46,9.33A9.37,9.37,0,0,0,217.75,76.31Z"/><path class="cls-1" d="M174.59,75.48a13.88,13.88,0,1,1,0,20.48c0,.41,0,.73,0,1v13.41c0,.28,0,.55,0,.83a2.2,2.2,0,0,1-2.33,2.09,2.16,2.16,0,0,1-2.08-2.13c0-.25,0-.49,0-.74V74.73c0-.24,0-.49,0-.73a2.15,2.15,0,0,1,2.12-2.11,2.18,2.18,0,0,1,2.28,2C174.62,74.39,174.59,74.85,174.59,75.48Zm9.37.83a9.4,9.4,0,1,0,9.44,9.33A9.29,9.29,0,0,0,184,76.31Z"/><path class="cls-1" d="M109.82,40.19a13.75,13.75,0,0,1,11.82-3.47A13.39,13.39,0,0,1,130,41.66a13.75,13.75,0,0,1-.17,17.59,13.4,13.4,0,0,1-9.63,4.9,13.61,13.61,0,0,1-10.38-3.66c0,.68,0,1.13,0,1.57a2.23,2.23,0,0,1-1.6,2,2.15,2.15,0,0,1-2.47-1,3.08,3.08,0,0,1-.32-.94,4.59,4.59,0,0,1,0-.83q0-17.91,0-35.82c0-.25,0-.49,0-.74a2.17,2.17,0,0,1,1.93-2.1,2.15,2.15,0,0,1,2.36,1.61,4.68,4.68,0,0,1,.12,1.18V40.19Zm0,10.18a9.41,9.41,0,1,0,9.36-9.43A9.35,9.35,0,0,0,109.82,50.37Z"/><path class="cls-1" d="M109.82,96v14.58a5,5,0,0,1-.08,1.09,2.2,2.2,0,0,1-4.34-.38c0-.25,0-.49,0-.74q0-17.87,0-35.75c0-.27,0-.55,0-.83a2.12,2.12,0,0,1,1.9-2,2.08,2.08,0,0,1,2.38,1.56,13.49,13.49,0,0,1,.2,1.93c.66-.48,1.26-1,1.91-1.37a16.42,16.42,0,0,1,2.2-1.15,13,13,0,0,1,2.27-.7,14.58,14.58,0,0,1,2.37-.27,15.78,15.78,0,0,1,2.48.09,12.43,12.43,0,0,1,2.33.51,13.54,13.54,0,0,1,2.19.92,14.05,14.05,0,0,1,2,1.31,15.23,15.23,0,0,1,1.82,1.68,15.5,15.5,0,0,1,1.47,1.87A13.89,13.89,0,0,1,109.82,96Zm9.39-19.65a9.4,9.4,0,1,0,9.42,9.36A9.29,9.29,0,0,0,119.21,76.31Z"/><path class="cls-1" d="M142.19,52.58c.19.57.31,1,.48,1.43a9.37,9.37,0,0,0,14.72,3.52c.17-.14.33-.28.48-.43a2.23,2.23,0,1,1,3,3.24,13.71,13.71,0,0,1-6.1,3.42A13.85,13.85,0,1,1,165,48a15.82,15.82,0,0,1,.19,2.28A2.21,2.21,0,0,1,163,52.57c-.27,0-.55,0-.82,0H142.19Zm18.19-4.5a9.25,9.25,0,0,0-9.16-7.14c-4.31.08-8.39,3.32-8.91,7.14Z"/><path class="cls-1" d="M142.13,87.92a22.91,22.91,0,0,0,.94,2.25,9.35,9.35,0,0,0,14.32,2.71c.19-.16.36-.33.54-.49a2.35,2.35,0,0,1,3.24,0,2.29,2.29,0,0,1-.19,3.22,13.23,13.23,0,0,1-6,3.43,13.85,13.85,0,1,1,10-15.83,18.67,18.67,0,0,1,.21,2.1,2.27,2.27,0,0,1-2.5,2.6H142.13Zm18.27-4.46c-.93-4.55-5.24-7.51-10.18-7.1-3.76.31-7.75,3.89-7.88,7.1Z"/><path class="cls-1" d="M240.75,87.92c.19.58.3,1,.46,1.38a9.36,9.36,0,0,0,14.69,3.62c.24-.2.45-.42.69-.61a2.35,2.35,0,0,1,3.17.12,2.24,2.24,0,0,1-.18,3.15,13.49,13.49,0,0,1-7,3.72,13.84,13.84,0,1,1,10.84-16.78,24.81,24.81,0,0,1,.33,2.73,2.36,2.36,0,0,1-2.59,2.69c-5.88,0-11.77,0-17.65,0Zm.15-4.49h18c-.49-3.94-4.78-7.21-9.26-7.11C245.4,76.41,241.18,79.82,240.9,83.43Z"/><path class="cls-1" d="M169.62,43.42V25.69c0-.28,0-.56,0-.83a2.19,2.19,0,0,1,2.08-2.16,2.23,2.23,0,0,1,2.32,2,5.93,5.93,0,0,1,0,.73q0,18,0,36a4.14,4.14,0,0,1-.16,1.27,2.2,2.2,0,0,1-4.25-.57c0-.31,0-.62,0-.92Z"/><path class="cls-1" d="M184.52,43.42q0,9.15,0,18.28a3.24,3.24,0,0,1-.13,1.08A2.12,2.12,0,0,1,182,64.15a2.17,2.17,0,0,1-1.87-1.87,5.62,5.62,0,0,1,0-.82v-36c0-.19,0-.37,0-.55a2.22,2.22,0,0,1,2.24-2.2A2.15,2.15,0,0,1,184.51,25Q184.53,34.19,184.52,43.42Z"/><path class="cls-1" d="M273.22,75.46l.84-.66a13,13,0,0,1,8.15-2.9,3.57,3.57,0,0,1,1.34.23,2.16,2.16,0,0,1,1.22,2.18A2.19,2.19,0,0,1,283,76.22a6.71,6.71,0,0,1-1.09.11A9.28,9.28,0,0,0,273.19,85c0,.46,0,.92,0,1.38,0,3.4,0,6.8,0,10.2a5.91,5.91,0,0,1-.08,1.19,2.19,2.19,0,0,1-4.29-.08,5.6,5.6,0,0,1-.06-1q0-11,0-22.06a5.65,5.65,0,0,1,.07-1,2.18,2.18,0,0,1,4.27-.06A18.41,18.41,0,0,1,273.22,75.46Z"/></svg>