<svg id="Layer_1" data-name="Layer 1" xmlns="http://www.w3.org/2000/svg" viewBox="0 0 226.92 203.2"><defs><style>.cls-1{fill:#fff;}.cls-2{fill:#282828;}</style></defs><circle class="cls-1" cx="113.46" cy="101.6" r="23.02"/><path class="cls-2" d="M123.67,105.55l-.72-8a4.64,4.64,0,0,0-4.62-4.16h-8.94a4.65,4.65,0,0,0-4.57,4.09l-.83,8a4.33,4.33,0,0,0,4.3,4.83h11.07a4.32,4.32,0,0,0,4.3-4.77Zm-2,2.55a3.09,3.09,0,0,1-2.33,1H108.29a3.16,3.16,0,0,1-3.13-3.51v0l.83-8a3.45,3.45,0,0,1,3.31-3h9a3.46,3.46,0,0,1,3.43,3.1l.71,8h0a3.06,3.06,0,0,1-.79,2.43Z"/><path class="cls-2" d="M118.26,93.35a4.45,4.45,0,0,0-8.87,0,5.47,5.47,0,0,0-.09,1,1.09,1.09,0,0,0,0,.18h1.18a.91.91,0,0,1,0-.17,4.64,4.64,0,0,1,.11-1,3.25,3.25,0,0,1,6.47,0,4.64,4.64,0,0,1,.11,1,.91.91,0,0,1,0,.17h1.18v-.17a5.47,5.47,0,0,0-.08-1Z"/><path class="cls-2" d="M117.51,96.43a.59.59,0,0,1,.56.76,4.36,4.36,0,0,1-8.49,0,.59.59,0,0,1,.56-.76h0a.58.58,0,0,1,.56.4,3.19,3.19,0,0,0,6.25,0,.59.59,0,0,1,.56-.4Z"/></svg>