<svg id="Layer_1" data-name="Layer 1" xmlns="http://www.w3.org/2000/svg" viewBox="0 0 226.92 203.2"><defs><style>.cls-1{fill:#fff;}</style></defs><path class="cls-1" d="M113.46,52.32a49.28,49.28,0,1,0,49.28,49.28A49.28,49.28,0,0,0,113.46,52.32Zm0,95.27a46,46,0,1,1,46-46A46,46,0,0,1,113.46,147.59Z"/><path class="cls-1" d="M114.15,58.89a42.71,42.71,0,1,0,42.71,42.71A42.71,42.71,0,0,0,114.15,58.89Zm39.38,44.35a39.25,39.25,0,0,1-10.38,25L140.87,126l-2.33,2.32,2.29,2.29a39.28,39.28,0,0,1-25,10.38v-3.24h-3.28V141a39.25,39.25,0,0,1-25-10.38l2.28-2.29L87.44,126l-2.29,2.28a39.25,39.25,0,0,1-10.38-25H78V100H74.77a39.28,39.28,0,0,1,10.38-25l2.29,2.29,2.32-2.33L87.48,72.6a39.25,39.25,0,0,1,25-10.38v3.24h3.28V62.22a39.28,39.28,0,0,1,25,10.38l-2.29,2.28,2.33,2.33,2.28-2.29a39.28,39.28,0,0,1,10.38,25h-3.24v3.28Z"/><path class="cls-1" d="M98.06,103.81a6.2,6.2,0,0,0,2.67-1.12l3.36,3.6a1.26,1.26,0,0,0,.24.22l4.89,3.51v9.65a4.93,4.93,0,1,0,9.86,0v-2.58l1.34,1a4.88,4.88,0,0,0,2.86.92,5.52,5.52,0,0,0,.81-.06,4.92,4.92,0,0,0,2.07-8.87L119.08,105V95a2.45,2.45,0,0,0,0-.27l-.76-4.57a12.82,12.82,0,0,0,4.06-10c0-6.44-3.61-11.49-8.21-11.49s-8.21,5-8.21,11.49a12.79,12.79,0,0,0,4.07,10l-.76,4.57a1.24,1.24,0,0,0,0,.27V98.1l-3.92-1.77a6.27,6.27,0,0,0-2.32-7L90.7,80.57l-1.91,2.66L101.07,92a3,3,0,0,1,.66,4.16v0a1.63,1.63,0,0,0,.45,2.27,1.34,1.34,0,0,0,.23.13l6,2.71.84.6v4l-2.84-2L102,99.21a1.64,1.64,0,0,0-2.55.16,3,3,0,0,1-4.12.68L83,91.25l-1.91,2.66,12.29,8.81A6.19,6.19,0,0,0,98.06,103.81Zm26.19,8.9a1.64,1.64,0,0,1-1.85,2.71l-.07,0L119.08,113v-4Zm-15-32.47c0-4.45,2.26-8.21,4.93-8.21s4.93,3.76,4.93,8.21c0,3.48-1.37,6.6-3.39,7.77a1.66,1.66,0,0,0-.81,1.7l.91,5.45v24.51a1.64,1.64,0,1,1-3.28,0V95.16l.91-5.45a1.67,1.67,0,0,0-.8-1.7C110.59,86.84,109.22,83.72,109.22,80.24Z"/><rect class="cls-1" x="89.61" y="84.5" width="3.29" height="13.14" transform="translate(-35.93 112.14) rotate(-54.35)"/><path class="cls-1" d="M126.17,72.79l-1.27,3A27.93,27.93,0,1,1,88,111.42l2.93,1.48L92.42,110l-6.23-3.13a1.64,1.64,0,0,0-2.2.72l-3.14,6.23,2.93,1.48L85,112.81a31.21,31.21,0,1,0,41.15-40Z"/></svg>