<svg id="Layer_1" data-name="Layer 1" xmlns="http://www.w3.org/2000/svg" viewBox="0 0 226.92 203.2"><defs><style>.cls-1{fill:#fff;}.cls-2{fill:#282828;}</style></defs><circle class="cls-1" cx="113.46" cy="101.6" r="23.02"/><path class="cls-2" d="M113.15,113.55a1.31,1.31,0,0,1-.88-.34c-.92-.8-1.81-1.56-2.59-2.22h0a47,47,0,0,1-5.66-5.31,8.48,8.48,0,0,1-2.26-5.55,7.11,7.11,0,0,1,1.81-4.86,6.1,6.1,0,0,1,4.55-2,5.72,5.72,0,0,1,3.58,1.23A7.45,7.45,0,0,1,113.15,96a7.45,7.45,0,0,1,1.45-1.51,5.72,5.72,0,0,1,3.58-1.23,6.1,6.1,0,0,1,4.55,2,7.11,7.11,0,0,1,1.81,4.86,8.48,8.48,0,0,1-2.26,5.55,47.56,47.56,0,0,1-5.65,5.31c-.79.67-1.68,1.43-2.6,2.23A1.31,1.31,0,0,1,113.15,113.55Zm-5-18.94a4.77,4.77,0,0,0-3.57,1.56,5.76,5.76,0,0,0-1.46,4,7.15,7.15,0,0,0,2,4.7,46.66,46.66,0,0,0,5.49,5.15h0c.79.67,1.68,1.43,2.61,2.24.93-.81,1.82-1.57,2.61-2.24a46.66,46.66,0,0,0,5.49-5.15,7.15,7.15,0,0,0,2-4.7,5.76,5.76,0,0,0-1.46-4,4.77,4.77,0,0,0-3.57-1.56,4.4,4.4,0,0,0-2.77,1,6.44,6.44,0,0,0-1.54,1.78.84.84,0,0,1-1.44,0,6.44,6.44,0,0,0-1.54-1.78,4.4,4.4,0,0,0-2.77-1Z"/></svg>