<svg id="Layer_1" data-name="Layer 1" xmlns="http://www.w3.org/2000/svg" viewBox="0 0 226.92 203.2"><defs><style>.cls-1{fill:#fff;}.cls-2{fill:#282828;}</style></defs><circle class="cls-1" cx="113.46" cy="101.6" r="23.02"/><path class="cls-2" d="M113.14,100.75a6.34,6.34,0,1,1,6.34-6.34A6.35,6.35,0,0,1,113.14,100.75Zm0-11.67a5.33,5.33,0,1,0,5.32,5.33A5.33,5.33,0,0,0,113.14,89.08Z"/><path class="cls-2" d="M121.11,113.42h-15.6a1.72,1.72,0,0,1-1.27-.56,1.77,1.77,0,0,1-.44-1.36c.44-4.34,2.83-8,6.24-9.47l.09,0,6.07-.12.09,0c3.53,1.39,6.09,5.16,6.54,9.59h0a1.78,1.78,0,0,1-.45,1.36A1.69,1.69,0,0,1,121.11,113.42ZM110.35,103c-3,1.36-5.15,4.73-5.54,8.6a.79.79,0,0,0,.18.58.7.7,0,0,0,.52.23h15.6a.68.68,0,0,0,.52-.23.76.76,0,0,0,.19-.58h0c-.41-4-2.68-7.43-5.81-8.71Z"/></svg>