<svg id="Layer_1" data-name="Layer 1" xmlns="http://www.w3.org/2000/svg" viewBox="0 0 193.63 136.02"><defs><style>.cls-1{fill:#fff;}</style></defs><path class="cls-1" d="M99.27,46.78c.15-.33.26-.6.38-.87a11.78,11.78,0,0,1,9.29-7.15,19.51,19.51,0,0,1,8.29.51,3.69,3.69,0,0,1,.56.19,1.68,1.68,0,0,1-1,3.22c-.52-.1-1-.26-1.57-.37a14.46,14.46,0,0,0-6.92.06,8.49,8.49,0,0,0-5.82,5.54s0,.08,0,.16l.55.3a26.09,26.09,0,0,1,5,3.37,4.56,4.56,0,0,0,3,1.14c1.12,0,2.24.07,3.35.12a10.33,10.33,0,0,1,2.81.52,7.64,7.64,0,0,1,4,3.14,16,16,0,0,1,2.33,6,17.88,17.88,0,0,1-.54,8.09,44,44,0,0,1-3,7.6c-1.07,2.21-2.17,4.39-3.22,6.61a27.16,27.16,0,0,0-1.33,3.26,11,11,0,0,1-4.87,6,21.47,21.47,0,0,1-6.94,2.63,31.9,31.9,0,0,1-8.33.58,9.75,9.75,0,0,1-4.2-1.25,12.57,12.57,0,0,1-2.71-1.84,2.19,2.19,0,0,0-1.5-.6,17.78,17.78,0,0,1-8.27-2.47,16.77,16.77,0,0,1-7.21-8.78A24,24,0,0,1,70,75.88a47.94,47.94,0,0,1,.56-12A63,63,0,0,1,73,53.72a27.46,27.46,0,0,1,3.62-7.37A13.78,13.78,0,0,1,79.88,43a10.35,10.35,0,0,1,9-1.51,18.37,18.37,0,0,1,7.29,4,4.05,4.05,0,0,0,2.29,1.13A5.28,5.28,0,0,1,99.27,46.78ZM92.33,93a8,8,0,0,0,4.11,1.17,28.41,28.41,0,0,0,7.18-.75,16.58,16.58,0,0,0,5.45-2.2,7.8,7.8,0,0,0,3.23-4.09,39.47,39.47,0,0,1,1.53-3.76c1.16-2.47,2.4-4.9,3.58-7.36a35.45,35.45,0,0,0,2.4-6.29,14,14,0,0,0,.16-7.43,12.29,12.29,0,0,0-1.49-3.57,4.45,4.45,0,0,0-3.06-2.1c-.76-.13-1.54-.16-2.32-.22-1.21-.09-2.43-.11-3.63-.25a5.58,5.58,0,0,1-3.21-1.44,24.21,24.21,0,0,0-5-3.38A14.62,14.62,0,0,0,96,49.59a7.32,7.32,0,0,0-5.09,1.34,11.45,11.45,0,0,0-3.53,4.45,29.85,29.85,0,0,0-2.41,7.48,94.27,94.27,0,0,0-1.72,13.07,37.47,37.47,0,0,0,.29,8,11.61,11.61,0,0,0,1.21,3.85,4.32,4.32,0,0,0,5,2.33,13.71,13.71,0,0,0,6.41-3.39,3.62,3.62,0,0,0,.5-.6,1.64,1.64,0,0,1,.86-.6,1.67,1.67,0,0,1,1.83.56,1.59,1.59,0,0,1,.12,1.9,6.22,6.22,0,0,1-1,1.2,16.17,16.17,0,0,1-4.69,3.15C93.34,92.53,92.88,92.71,92.33,93Zm-10.91-4c-.09-.24-.12-.35-.16-.46A18.41,18.41,0,0,1,80,83.78,43.4,43.4,0,0,1,80,73.28c.25-2.61.63-5.21,1-7.81a47.94,47.94,0,0,1,1.9-8.19A22.25,22.25,0,0,1,86.1,50.9a11.57,11.57,0,0,1,5.54-4.18l.33-.16-.23-.13A13.7,13.7,0,0,0,88,44.76a7.14,7.14,0,0,0-7.16,1.88,14.21,14.21,0,0,0-2.59,3.48A29.7,29.7,0,0,0,75.83,56a61.62,61.62,0,0,0-2.59,14.37,29.28,29.28,0,0,0,.57,8.14,16.59,16.59,0,0,0,3,6.66A12.94,12.94,0,0,0,81.42,88.9Z"/></svg>