<svg id="Layer_1" data-name="Layer 1" xmlns="http://www.w3.org/2000/svg" viewBox="0 0 226.92 203.2"><defs><style>.cls-1{fill:#fff;}</style></defs><path class="cls-1" d="M115,52a29,29,0,0,1,3.52,1c1.27.53,2.44,1.32,3.67,1.94a2.22,2.22,0,0,0,1.23.32,14.74,14.74,0,0,1,15.11,8.63,2.4,2.4,0,0,0,1.1,1.08,14.61,14.61,0,0,1,8.61,14.72,2.45,2.45,0,0,0,.5,1.87,14.48,14.48,0,0,1,0,17,2.64,2.64,0,0,0-.47,1.66,14.66,14.66,0,0,1-8.78,14.9,2,2,0,0,0-.87,3L150,134.3c1.32,1.89.76,3.24-1.54,3.61-3.55.56-7.1,1.05-10.64,1.63a1.68,1.68,0,0,0-1.06.76c-1.74,3.13-3.43,6.29-5.14,9.43-1,1.9-2.59,2-3.83.23l-13.74-19.6-.67-.91-.72,1L99.07,149.87c-1.32,1.88-2.84,1.79-3.93-.21-1.64-3-3.32-6-4.87-9a2.2,2.2,0,0,0-2-1.25q-5.08-.7-10.16-1.5c-2.06-.32-2.63-1.75-1.42-3.48L88.2,118.05a2,2,0,0,0-.84-3,14.24,14.24,0,0,1-8.52-10.46,33.62,33.62,0,0,1-.28-4.62,2.7,2.7,0,0,0-.32-1.31,14.84,14.84,0,0,1,0-17.48A1.88,1.88,0,0,0,78.56,80,14.79,14.79,0,0,1,87.1,64.94a2.47,2.47,0,0,0,1.18-1.12,14.74,14.74,0,0,1,15.12-8.61,2,2,0,0,0,1.23-.33,14.9,14.9,0,0,1,6.75-2.75,1,1,0,0,0,.34-.16ZM82.39,101.11a10.81,10.81,0,0,0,7.2,10.67,2.78,2.78,0,0,1,1.9,1.75,10.67,10.67,0,0,0,12.4,7.19,2.71,2.71,0,0,1,2.4.65,10.7,10.7,0,0,0,14.27,0,2.64,2.64,0,0,1,2.4-.65,10.69,10.69,0,0,0,12.4-7.2,2.55,2.55,0,0,1,1.71-1.67,10.7,10.7,0,0,0,7.15-12.42,2.49,2.49,0,0,1,.57-2.24c3.82-4.58,3.83-9.92,0-14.43a2.52,2.52,0,0,1-.59-2.24,10.69,10.69,0,0,0-7.12-12.43,2.64,2.64,0,0,1-1.76-1.75,10.71,10.71,0,0,0-12.45-7.11,2.47,2.47,0,0,1-2.23-.58,10.7,10.7,0,0,0-14.42,0,2.57,2.57,0,0,1-2.32.61,10.68,10.68,0,0,0-12.38,7.07,3,3,0,0,1-2,1.9,10.61,10.61,0,0,0-7,12A3.13,3.13,0,0,1,81.82,83a10.46,10.46,0,0,0-1,12.36C82.06,97.35,83.3,99.12,82.39,101.11Zm15,44.46,12.44-17.73-5.45-3a2.17,2.17,0,0,0-2.26.49c-2.85,4.06-5.71,8.12-8.54,12.2a.93.93,0,0,0-.13.76C94.66,140.66,96,143,97.34,145.57Zm19.73-17.73,12.42,17.73c1.36-2.5,2.66-4.87,3.92-7.26a1,1,0,0,0-.14-.84c-2.83-4.08-5.69-8.15-8.54-12.21a2.16,2.16,0,0,0-2.27-.41Zm-25.9-7.27-9.73,13.88c2.77.42,5.35.83,7.94,1.16a1.38,1.38,0,0,0,1.06-.52c2.38-3.33,4.73-6.69,7.07-10,.15-.21.27-.43.37-.6a37.62,37.62,0,0,1-3.45-1.58C93.32,122.22,92.32,121.4,91.17,120.57Zm54.23,13.88-9.82-14a15.37,15.37,0,0,1-6.6,3.87,1.28,1.28,0,0,0,.05.27c2.5,3.57,5,7.15,7.51,10.7a1.15,1.15,0,0,0,.89.34C140,135.28,142.61,134.87,145.4,134.45Z"/><path class="cls-1" d="M88.17,91.24c.1-16.92,12.1-28.28,26.51-27.61a25.2,25.2,0,0,1,8.7,48.33c-1.66.72-2.8.46-3.3-.74s.1-2.11,1.75-2.82A21.2,21.2,0,0,0,134.6,86a21.36,21.36,0,1,0-29.85,22.29l.44.19a2,2,0,0,1,1.29,2.63c-.46,1.1-1.56,1.46-2.87.91a25,25,0,0,1-11-9C89.63,98.71,88.17,93.94,88.17,91.24Z"/><path class="cls-1" d="M126.93,92.69c.48,0,.87,0,1.25,0a1.93,1.93,0,0,1,0,3.85c-.22,0-.45,0-.68,0H99.51c-.26,0-.52,0-.77,0a2,2,0,0,1-1.77-2,1.92,1.92,0,0,1,1.75-1.88,10.11,10.11,0,0,1,1.23,0c1.36-6.36,5.17-10.16,11.57-11.56,0-1.15,0-2.37,0-3.58,0-1.42.75-2.3,1.92-2.31s2,.88,2,2.27c0,1.2,0,2.39,0,3.66a13.66,13.66,0,0,1,11.52,11.52Zm-4-.06a9.59,9.59,0,0,0-10.1-7.69c-4.32.28-8.6,4.06-8.7,7.69Z"/><path class="cls-1" d="M115.21,112.05a1.94,1.94,0,1,1-1.9-1.92A2,2,0,0,1,115.21,112.05Z"/></svg>