<svg id="Layer_1" data-name="Layer 1" xmlns="http://www.w3.org/2000/svg" viewBox="0 0 226.92 203.2"><defs><style>.cls-1{fill:#fff;}</style></defs><path class="cls-1" d="M113.46,127.29c-25.93,0-45.49-8.58-45.49-20s19.56-20,45.49-20,45.48,8.59,45.48,20S139.39,127.29,113.46,127.29Zm0-34.31C90,93,73.6,100.54,73.6,107.32S90,121.67,113.46,121.67s39.86-7.56,39.86-14.35S137,93,113.46,93Z"/><path class="cls-1" d="M148.08,119.24a2.81,2.81,0,0,1-2.81-2.81c0-4.2-12.4-10.3-31.81-10.3s-31.81,6.1-31.81,10.3a2.82,2.82,0,0,1-5.63,0c0-10.35,19.29-15.93,37.44-15.93s37.43,5.58,37.43,15.93A2.81,2.81,0,0,1,148.08,119.24Z"/><path class="cls-1" d="M113.46,151.34c-20.94,0-31.95-10-37.5-18.3a49.83,49.83,0,0,1-8-25.72,2.82,2.82,0,0,1,5.63,0c0,.39.45,38.4,39.86,38.4s39.86-38,39.86-38.4a2.81,2.81,0,0,1,5.62,0C158.94,119.57,150.77,151.34,113.46,151.34Z"/><path class="cls-1" d="M113.46,127.29a2.8,2.8,0,0,1-2.55-4L137.1,67a2.81,2.81,0,1,1,5.1,2.38L116,125.67A2.82,2.82,0,0,1,113.46,127.29Z"/><path class="cls-1" d="M124.61,126.44a2.81,2.81,0,0,1-2.36-4.33L153.76,73a2.82,2.82,0,1,1,4.74,3L127,125.15A2.79,2.79,0,0,1,124.61,126.44Z"/><path class="cls-1" d="M121.2,80.59a2.81,2.81,0,0,1-2.81-2.82,5.77,5.77,0,0,0-.93-2.52,10.61,10.61,0,0,1-1.57-5.12A11,11,0,0,1,117.45,65a6.57,6.57,0,0,0,.94-2.59,6.52,6.52,0,0,0-.94-2.59,11,11,0,0,1-1.56-5.14,2.82,2.82,0,1,1,5.63,0,6.43,6.43,0,0,0,.94,2.58A11.14,11.14,0,0,1,124,62.4a11.14,11.14,0,0,1-1.56,5.15,6.38,6.38,0,0,0-.94,2.58,5.8,5.8,0,0,0,.92,2.5A10.7,10.7,0,0,1,124,77.77,2.82,2.82,0,0,1,121.2,80.59Z"/><path class="cls-1" d="M107.13,80.59a2.81,2.81,0,0,1-2.81-2.82,5.7,5.7,0,0,0-.93-2.51,10.69,10.69,0,0,1-1.57-5.13A11.06,11.06,0,0,1,103.37,65a6.45,6.45,0,0,0,.95-2.59,6.45,6.45,0,0,0-.95-2.59,11.14,11.14,0,0,1-1.55-5.14,2.81,2.81,0,1,1,5.62,0,6.59,6.59,0,0,0,.94,2.58,11,11,0,0,1,1.56,5.15,11,11,0,0,1-1.56,5.15,6.53,6.53,0,0,0-.94,2.58,5.71,5.71,0,0,0,.93,2.5,10.7,10.7,0,0,1,1.57,5.14A2.81,2.81,0,0,1,107.13,80.59Z"/></svg>